<svg xmlns="http://www.w3.org/2000/svg" xmlns:xlink="http://www.w3.org/1999/xlink" version="1.1" x="0px" y="0px" viewBox="0 0 90 112.5" style="enable-background:new 0 0 90 90;" xml:space="preserve"><path d="M81.7,45.2c0,0,0-0.1,0-0.2s0-0.1,0-0.2c0-0.1,0-0.2-0.1-0.3c0,0,0,0,0,0c0,0,0-0.1-0.1-0.2c-5.7-7.1-9.2-15.6-10.2-24.7  c0-0.1,0-0.1-0.1-0.2c-0.1-0.5-0.4-0.8-0.9-0.9c-9-1-17.6-4.5-24.7-10.2c0,0-0.1-0.1-0.2-0.1c0,0,0,0,0,0c-0.1,0-0.2-0.1-0.3-0.1  c0,0-0.1,0-0.2,0s-0.1,0-0.2,0c-0.1,0-0.2,0-0.3,0.1c0,0,0,0,0,0c0,0-0.1,0-0.2,0.1c-7.1,5.7-15.6,9.2-24.7,10.2  c-0.3,0-0.5,0.2-0.7,0.4c-0.2,0.2-0.3,0.4-0.4,0.7c-1,9.1-4.5,17.6-10.2,24.7c0,0-0.1,0.1-0.1,0.2c0,0,0,0,0,0  c0,0.1-0.1,0.2-0.1,0.3c0,0.1,0,0.1,0,0.2c0,0.1,0,0.1,0,0.2c0,0.1,0,0.2,0.1,0.3c0,0,0,0,0,0c0,0,0,0.1,0.1,0.2  c5.7,7.1,9.2,15.6,10.2,24.7c0,0.5,0.4,0.8,0.9,0.9c0,0,0.1,0,0.1,0c9.1,1,17.6,4.5,24.7,10.2c0.2,0.2,0.4,0.2,0.6,0.2c0,0,0,0,0,0  c0,0,0,0,0,0c0.2,0,0.4-0.1,0.6-0.2c7.1-5.7,15.6-9.2,24.7-10.2c0.2,0,0.4-0.1,0.5-0.2C71,71,71,71,71,71c0,0,0.1-0.1,0.1-0.1  c0.1-0.1,0.2-0.3,0.2-0.5c1-9,4.5-17.6,10.2-24.7c0,0,0.1-0.1,0.1-0.2c0,0,0,0,0,0C81.7,45.4,81.7,45.3,81.7,45.2z M79.1,44.5H46.4  l23.1-23.2C70.7,29.8,74,37.8,79.1,44.5z M68.7,20.5L45.6,43.7V10.9C52.3,16,60.3,19.3,68.7,20.5z M44.4,43.7L21.2,20.5  c8.4-1.1,16.4-4.4,23.2-9.5V43.7z M44.4,79c-6.8-5.1-14.7-8.4-23.1-9.5l23.1-23V79z M45.6,79.1V46.5l23,23  C60.2,70.7,52.3,74,45.6,79.1z M20.5,21.3l23.1,23.2H10.9C16,37.8,19.3,29.8,20.5,21.3z M11,45.7h32.6L20.5,68.8  C19.4,60.4,16.1,52.5,11,45.7z M69.5,68.8L46.4,45.7H79C73.9,52.5,70.7,60.4,69.5,68.8z"/></svg>